<?xml version="1.0" encoding="UTF-8"?>
<svg role="img" class="logo-at"
	xmlns="http://www.w3.org/2000/svg"
	xmlns:xlink="http://www.w3.org/1999/xlink" version="1.1" viewBox="0 0 129.66 137.49">
	<!-- Generator: Adobe Illustrator 29.5.1, SVG Export Plug-In . SVG Version: 2.1.0 Build 141)  -->
	<defs>
		<clipPath id="clippath">
			<rect fill="none" width="129.66" height="137.49"/>
		</clipPath>
	</defs>
	<g clip-path="url(#clippath)">
		<path fill="#00b2b1" d="M22.27,65.2h9.94L7.42,102.85c-1.08,1.63-3.04,1.78-4.36.34l-1.92-2.1c-1.32-1.44-1.52-3.95-.45-5.58l19.07-29.03s1.01-1.29,2.5-1.29"/>
		<path fill="#702f8a" d="M120.12,61.6c1.95,0,3.94-1.55,4.41-3.45l.69-2.76c.47-1.9-.74-3.45-2.69-3.45h-22.29l6.36,9.65h13.51Z"/>
		<path fill="#00b2b1" d="M128.97,95.52l-22.37-33.92-6.36-9.65L66.79,1.21c-.54-.82-1.25-1.22-1.95-1.21-.71,0-1.41.39-1.96,1.21L29.42,51.95h11.61l23.8-36.04,57.41,86.94c1.08,1.63,3.04,1.78,4.36.35l1.92-2.1c1.32-1.44,1.52-3.95.45-5.58"/>
		<path fill="#702f8a" d="M7.13,51.95c-1.95,0-3.16,1.55-2.69,3.45l.69,2.76c.47,1.9,2.46,3.44,4.41,3.45h49.95v72.26c0,2,1.64,3.64,3.64,3.64h3.38c2,0,3.64-1.64,3.64-3.64V61.6h20.49l-5.31-8.04c-.96-1.46-3.11-1.61-3.11-1.61H7.13Z"/>
	</g>
</svg>